<svg xmlns="http://www.w3.org/2000/svg" viewBox="0 0 512 512">
  <defs>
    <!-- Gradient background -->
    <linearGradient id="bgGradient" x1="0%" y1="0%" x2="100%" y2="100%">
      <stop offset="0%" style="stop-color:#0c607d;stop-opacity:1" />
      <stop offset="100%" style="stop-color:#0a4d63;stop-opacity:1" />
    </linearGradient>
    
    <!-- Inner circle gradient -->
    <linearGradient id="innerGradient" x1="0%" y1="0%" x2="100%" y2="100%">
      <stop offset="0%" style="stop-color:#14a3c7;stop-opacity:1" />
      <stop offset="100%" style="stop-color:#0c607d;stop-opacity:1" />
    </linearGradient>
  </defs>
  
  <!-- Background circle with rounded corners (app icon shape) -->
  <rect x="32" y="32" width="448" height="448" rx="96" ry="96" fill="url(#bgGradient)"/>
  
  <!-- Inner circle border -->
  <circle cx="256" cy="256" r="180" fill="none" stroke="#ffffff" stroke-width="12" opacity="0.9"/>
  
  <!-- Inner circle fill -->
  <circle cx="256" cy="256" r="165" fill="url(#innerGradient)"/>
  
  <!-- Paw print - main element -->
  <g fill="#ffffff" opacity="0.95">
    <!-- Main paw pad -->
    <ellipse cx="256" cy="285" rx="55" ry="45"/>
    
    <!-- Top left toe -->
    <ellipse cx="200" cy="215" rx="22" ry="28"/>
    
    <!-- Top right toe -->
    <ellipse cx="312" cy="215" rx="22" ry="28"/>
    
    <!-- Middle left toe -->
    <ellipse cx="185" cy="260" rx="18" ry="24"/>
    
    <!-- Middle right toe -->
    <ellipse cx="327" cy="260" rx="18" ry="24"/>
  </g>
  
  <!-- Medical cross / calculator element in center -->
  <g fill="#ffffff">
    <!-- Horizontal bar -->
    <rect x="236" y="268" width="40" height="12" rx="2"/>
    <!-- Vertical bar -->
    <rect x="250" y="254" width="12" height="40" rx="2"/>
  </g>
  
  <!-- Subtle calculator/display lines at bottom -->
  <g fill="#ffffff" opacity="0.6">
    <rect x="210" y="335" width="92" height="6" rx="3"/>
    <rect x="225" y="350" width="62" height="6" rx="3"/>
  </g>
</svg>