<svg xmlns="http://www.w3.org/2000/svg" viewBox="0 0 192 192">
  <defs>
    <linearGradient id="bg192" x1="0%" y1="0%" x2="100%" y2="100%">
      <stop offset="0%" style="stop-color:#0a3d52"/>
      <stop offset="50%" style="stop-color:#107a94"/>
      <stop offset="100%" style="stop-color:#0a4a5c"/>
    </linearGradient>
    <linearGradient id="accent192" x1="0%" y1="0%" x2="100%" y2="100%">
      <stop offset="0%" style="stop-color:#00fff2"/>
      <stop offset="100%" style="stop-color:#00b8a8"/>
    </linearGradient>
    <filter id="glow192" x="-50%" y="-50%" width="200%" height="200%">
      <feGaussianBlur stdDeviation="2" result="blur"/>
      <feComposite in="SourceGraphic" in2="blur" operator="over"/>
    </filter>
    <filter id="shadow192" x="-50%" y="-50%" width="200%" height="200%">
      <feDropShadow dx="0" dy="2" stdDeviation="3" flood-color="#000000" flood-opacity="0.3"/>
    </filter>
  </defs>
  <rect width="192" height="192" rx="48" fill="url(#bg192)"/>
  <path d="M0 0 L192 0 L192 70 L0 192 Z" fill="url(#shine192)" opacity="0.3"/>
  <defs>
    <linearGradient id="shine192" x1="0%" y1="0%" x2="100%" y2="100%">
      <stop offset="0%" style="stop-color:white;stop-opacity:0.4"/>
      <stop offset="100%" style="stop-color:white;stop-opacity:0"/>
    </linearGradient>
  </defs>
  <g transform="translate(96, 85)">
    <circle cx="0" cy="0" r="75" fill="none" stroke="url(#accent192)" stroke-width="2" opacity="0.3"/>
    <circle cx="0" cy="0" r="68" fill="none" stroke="url(#accent192)" stroke-width="1" opacity="0.5"/>
    <g filter="url(#shadow192)">
      <rect x="-12" y="-55" width="24" height="110" rx="6" fill="url(#accent192)"/>
      <rect x="-55" y="-12" width="110" height="24" rx="6" fill="url(#accent192)"/>
    </g>
    <circle cx="0" cy="0" r="32" fill="#ffffff" filter="url(#shadow192)"/>
    <circle cx="0" cy="0" r="27" fill="url(#bg192)"/>
    <g fill="#ffffff">
      <ellipse cx="0" cy="5" rx="9" ry="7"/>
      <ellipse cx="-13" cy="-6" rx="5.5" ry="6.5"/>
      <ellipse cx="13" cy="-6" rx="5.5" ry="6.5"/>
      <ellipse cx="-9" cy="-20" rx="4.5" ry="5.5"/>
      <ellipse cx="9" cy="-20" rx="4.5" ry="5.5"/>
    </g>
    <rect x="-45" y="42" width="90" height="14" rx="7" fill="url(#accent192)" opacity="0.9"/>
  </g>
  <text x="96" y="165" text-anchor="middle" font-family="system-ui, sans-serif" font-size="14" font-weight="700" fill="#ffffff" letter-spacing="1">DVM</text>
</svg>