<svg xmlns="http://www.w3.org/2000/svg" width="1280" height="720" viewBox="0 0 1280 720" role="img" aria-label="Sudoku screenshot preview">
  <defs>
    <linearGradient id="bg" x1="0" y1="0" x2="1" y2="1">
      <stop offset="0" stop-color="#163a5b"/>
      <stop offset="1" stop-color="#1f1f39"/>
    </linearGradient>
  </defs>
  <rect width="1280" height="720" fill="url(#bg)"/>
  <rect x="62" y="50" width="1156" height="620" rx="22" fill="rgba(0,0,0,0.34)" stroke="rgba(255,255,255,0.2)"/>
  <text x="104" y="118" fill="#75f0da" font-family="Inter,Arial" font-size="48" font-weight="700">Sudoku</text>
  <text x="104" y="156" fill="#d9e7f6" font-family="Inter,Arial" font-size="22">Logic board with notes mode, timer, and hint controls</text>

  <rect x="104" y="188" width="620" height="430" rx="16" fill="rgba(255,255,255,0.08)" stroke="rgba(255,255,255,0.16)"/>
  <g transform="translate(136,220)">
    <rect x="0" y="0" width="556" height="366" rx="12" fill="#102b3a" stroke="#5ec8b9" stroke-width="4"/>
    <g stroke="#2f6074" stroke-width="2">
      <line x1="62" y1="0" x2="62" y2="366"/><line x1="124" y1="0" x2="124" y2="366"/>
      <line x1="186" y1="0" x2="186" y2="366"/><line x1="248" y1="0" x2="248" y2="366"/>
      <line x1="310" y1="0" x2="310" y2="366"/><line x1="372" y1="0" x2="372" y2="366"/>
      <line x1="434" y1="0" x2="434" y2="366"/><line x1="496" y1="0" x2="496" y2="366"/>
      <line x1="0" y1="40.666" x2="556" y2="40.666"/><line x1="0" y1="81.333" x2="556" y2="81.333"/>
      <line x1="0" y1="122" x2="556" y2="122"/><line x1="0" y1="162.666" x2="556" y2="162.666"/>
      <line x1="0" y1="203.333" x2="556" y2="203.333"/><line x1="0" y1="244" x2="556" y2="244"/>
      <line x1="0" y1="284.666" x2="556" y2="284.666"/><line x1="0" y1="325.333" x2="556" y2="325.333"/>
    </g>
    <g stroke="#80f4e0" stroke-width="4">
      <line x1="186" y1="0" x2="186" y2="366"/><line x1="372" y1="0" x2="372" y2="366"/>
      <line x1="0" y1="122" x2="556" y2="122"/><line x1="0" y1="244" x2="556" y2="244"/>
    </g>
    <g fill="#e9fbff" font-family="Inter,Arial" font-size="26" font-weight="700" text-anchor="middle">
      <text x="31" y="30">5</text><text x="93" y="30">3</text><text x="217" y="30">7</text><text x="403" y="30">1</text>
      <text x="31" y="71">6</text><text x="155" y="71">1</text><text x="217" y="71">9</text><text x="279" y="71">5</text>
      <text x="93" y="111">9</text><text x="155" y="111">8</text><text x="341" y="111">6</text>
      <text x="31" y="152">8</text><text x="279" y="152">6</text><text x="527" y="152">3</text>
      <text x="31" y="193">4</text><text x="248" y="193" fill="#65f0cf">8</text><text x="527" y="193">1</text>
      <text x="31" y="233">7</text><text x="279" y="233">2</text><text x="527" y="233">6</text>
      <text x="155" y="274">6</text><text x="341" y="274">2</text><text x="403" y="274">8</text>
      <text x="279" y="315">4</text><text x="341" y="315">1</text><text x="403" y="315">9</text><text x="527" y="315">5</text>
      <text x="155" y="356">8</text><text x="341" y="356">7</text><text x="465" y="356">9</text>
    </g>
  </g>

  <rect x="760" y="188" width="458" height="430" rx="16" fill="rgba(255,255,255,0.08)" stroke="rgba(255,255,255,0.16)"/>
  <text x="796" y="248" fill="#75f0da" font-family="Inter,Arial" font-size="24" font-weight="700">Session</text>
  <text x="796" y="290" fill="#e5f6ff" font-family="Inter,Arial" font-size="22">Timer: 08:41</text>
  <text x="796" y="326" fill="#e5f6ff" font-family="Inter,Arial" font-size="22">Mistakes: 1 / 3</text>
  <text x="796" y="362" fill="#e5f6ff" font-family="Inter,Arial" font-size="22">Difficulty: Hard</text>

  <rect x="796" y="392" width="386" height="56" rx="12" fill="#1b8d76"/>
  <text x="990" y="427" text-anchor="middle" fill="#fff" font-family="Inter,Arial" font-size="22" font-weight="700">Hint</text>
  <rect x="796" y="462" width="386" height="56" rx="12" fill="rgba(255,255,255,0.16)"/>
  <text x="990" y="497" text-anchor="middle" fill="#fff" font-family="Inter,Arial" font-size="22" font-weight="700">Notes</text>
</svg>
