<svg xmlns="http://www.w3.org/2000/svg" width="1280" height="720" viewBox="0 0 1280 720" role="img" aria-label="Personal IQ Challenge screenshot preview">
  <defs>
    <linearGradient id="bg" x1="0" y1="0" x2="1" y2="1">
      <stop offset="0" stop-color="#162f50"/>
      <stop offset="1" stop-color="#281a3b"/>
    </linearGradient>
  </defs>
  <rect width="1280" height="720" fill="url(#bg)"/>
  <rect x="62" y="50" width="1156" height="620" rx="22" fill="rgba(0,0,0,0.34)" stroke="rgba(255,255,255,0.2)"/>
  <text x="106" y="118" fill="#7cf7de" font-family="Inter,Arial" font-size="46" font-weight="700">Personal IQ Challenge</text>
  <text x="108" y="157" fill="#dce9f8" font-family="Inter,Arial" font-size="22">Freshly generated question sets on each attempt</text>

  <rect x="102" y="194" width="760" height="426" rx="18" fill="rgba(255,255,255,0.08)" stroke="rgba(255,255,255,0.18)"/>
  <text x="136" y="250" fill="#7cf7de" font-family="Inter,Arial" font-size="24" font-weight="700">Question 7 / 20</text>
  <text x="136" y="302" fill="#ffffff" font-family="Inter,Arial" font-size="30" font-weight="600">Which number comes next in the sequence?</text>
  <text x="136" y="344" fill="#ffffff" font-family="Inter,Arial" font-size="30" font-weight="600">2, 6, 12, 20, 30, ...</text>

  <rect x="136" y="378" width="690" height="54" rx="12" fill="rgba(0,0,0,0.34)" stroke="rgba(255,255,255,0.18)"/>
  <text x="164" y="412" fill="#dce9f8" font-family="Inter,Arial" font-size="24">A) 36</text>

  <rect x="136" y="446" width="690" height="54" rx="12" fill="rgba(0,0,0,0.34)" stroke="rgba(255,255,255,0.18)"/>
  <text x="164" y="480" fill="#dce9f8" font-family="Inter,Arial" font-size="24">B) 40</text>

  <rect x="136" y="514" width="690" height="54" rx="12" fill="#11806d"/>
  <text x="164" y="548" fill="#ffffff" font-family="Inter,Arial" font-size="24" font-weight="700">C) 42</text>

  <rect x="898" y="194" width="278" height="426" rx="18" fill="rgba(255,255,255,0.08)" stroke="rgba(255,255,255,0.18)"/>
  <text x="930" y="248" fill="#7cf7de" font-family="Inter,Arial" font-size="24" font-weight="700">Live Stats</text>
  <text x="930" y="298" fill="#e9f2ff" font-family="Inter,Arial" font-size="22">Time: 04:31</text>
  <text x="930" y="338" fill="#e9f2ff" font-family="Inter,Arial" font-size="22">Score: 68%</text>
  <text x="930" y="378" fill="#e9f2ff" font-family="Inter,Arial" font-size="22">Difficulty: Medium</text>

  <rect x="930" y="432" width="212" height="52" rx="12" fill="#11806d"/>
  <text x="1036" y="464" text-anchor="middle" fill="white" font-family="Inter,Arial" font-size="22" font-weight="700">Next</text>
</svg>
